<?xml version="1.0" encoding="UTF-8" standalone="no"?>
<!-- Created with Inkscape (http://www.inkscape.org/) -->

<svg
   width="1920"
   height="1080"
   viewBox="0 0 1920 1080"
   version="1.1"
   id="svg1"
   inkscape:version="1.4.2 (ebf0e940d0, 2025-05-08)"
   sodipodi:docname="Wallpaper.svg"
   xml:space="preserve"
   xmlns:inkscape="http://www.inkscape.org/namespaces/inkscape"
   xmlns:sodipodi="http://sodipodi.sourceforge.net/DTD/sodipodi-0.dtd"
   xmlns:xlink="http://www.w3.org/1999/xlink"
   xmlns="http://www.w3.org/2000/svg"
   xmlns:svg="http://www.w3.org/2000/svg"><sodipodi:namedview
     id="namedview1"
     pagecolor="#ffffff"
     bordercolor="#ffffff"
     borderopacity="1"
     inkscape:showpageshadow="2"
     inkscape:pageopacity="0.0"
     inkscape:pagecheckerboard="0"
     inkscape:deskcolor="#d1d1d1"
     inkscape:document-units="px"
     inkscape:zoom="0.70710678"
     inkscape:cx="618.71843"
     inkscape:cy="465.98337"
     inkscape:window-width="1920"
     inkscape:window-height="1008"
     inkscape:window-x="0"
     inkscape:window-y="0"
     inkscape:window-maximized="1"
     inkscape:current-layer="layer1"
     showguides="true" /><defs
     id="defs1"><linearGradient
       id="linearGradient3"
       inkscape:collect="always"><stop
         style="stop-color:#c14627;stop-opacity:1"
         offset="0"
         id="stop3" /><stop
         style="stop-color:#9a312d;stop-opacity:1;"
         offset="0.17351392"
         id="stop7" /><stop
         style="stop-color:#6d2b37;stop-opacity:1;"
         offset="0.46024966"
         id="stop5" /><stop
         style="stop-color:#462b3a;stop-opacity:1;"
         offset="0.7321586"
         id="stop6" /><stop
         style="stop-color:#331f2e;stop-opacity:1;"
         offset="1"
         id="stop4" /></linearGradient><radialGradient
       inkscape:collect="always"
       xlink:href="#linearGradient3"
       id="radialGradient4"
       cx="1103.6846"
       cy="328.12943"
       fx="1103.6846"
       fy="328.12943"
       r="1025.2078"
       gradientTransform="matrix(-1.5377349,-0.74415636,0.56626929,-1.1701522,3080.9656,1970.2074)"
       gradientUnits="userSpaceOnUse" /></defs><g
     inkscape:label="Layer 1"
     inkscape:groupmode="layer"
     id="layer1"><rect
       style="display:inline;fill:url(#radialGradient4);fill-opacity:1;opacity:1"
       id="rect3"
       width="2050.4155"
       height="1156.339"
       x="-61.591938"
       y="-35.763062"
       rx="2.499994"
       ry="2.499994" /><path
       style="display:inline;fill:#131522;fill-opacity:1"
       d="m -5.2683965,756.36613 c 0,0 54.7913235,-24.76147 69.5428345,-32.83967 14.75151,-8.07821 38.634912,-26.69321 63.923212,-41.44472 25.2883,-14.75151 34.42019,2.10736 43.55208,1.4049 9.13188,-0.70245 43.55207,-11.23924 72.70387,-35.12264 29.15179,-23.8834 56.19623,-48.46925 70.94774,-49.52293 14.75151,-1.05368 27.74689,11.9417 41.79594,19.31746 14.04906,7.37575 17.91255,2.45858 42.4984,18.26377 24.58585,15.80519 28.80057,28.80057 43.20085,37.23 14.40029,8.42944 52.68397,24.58585 57.95237,26.69321 5.26839,2.10736 76.56736,25.99076 90.96764,29.1518 14.40029,3.16103 65.67935,14.40028 82.53822,19.31745 16.85886,4.91717 37.23,19.66868 43.9033,22.47849 6.6733,2.80981 3.51226,-2.80981 11.23925,-3.51226 7.72698,-0.70246 22.47849,7.02453 42.49839,9.83434 20.01991,2.80981 33.71774,4.21471 55.14255,-6.32208 21.42482,-10.53679 18.61501,-8.42943 29.1518,-8.42943 10.53679,0 4.91717,6.32207 31.9616,3.86349 27.04444,-2.45859 21.77604,-9.83434 27.04444,-12.29293 5.2684,-2.45858 20.01991,0 31.61038,-3.16104 11.59047,-3.16103 33.01528,-13.3466 40.74227,-12.99537 7.72698,0.35122 25.11266,16.33203 36.00066,18.26377 10.8881,1.93175 33.1909,-3.51226 43.7277,-4.39033 10.5368,-0.87807 27.5713,-14.75151 36.7032,-15.62958 9.1319,-0.87806 14.0491,10.71241 43.0252,6.32208 28.9762,-4.39033 27.5713,-10.36118 35.8251,-11.59047 8.2539,-1.22929 8.6051,1.05368 12.4686,0.87806 3.8635,-0.17561 3.6878,-3.16103 7.9026,-3.51226 4.2147,-0.35123 15.6295,10.00995 25.2883,10.00995 9.6587,0 12.6441,-4.56594 17.5613,-5.44401 4.9172,-0.87806 8.7807,4.74156 15.6296,0.35123 6.8489,-4.39033 7.9026,-6.49769 13.171,-7.37576 5.2684,-0.87806 17.3857,3.16104 22.6541,2.98543 5.2684,-0.17561 8.4294,-6.32208 14.7515,-6.14646 6.3221,0.17561 11.5904,0.52684 19.3174,-0.52684 7.727,-1.05368 19.8443,-3.33665 23.8834,-3.16104 4.0391,0.17561 25.1127,13.3466 32.6641,12.81976 7.5514,-0.52684 13.171,-6.32207 16.8589,-7.20014 3.6878,-0.87806 8.2538,-0.87806 12.9953,-0.17561 4.7416,0.70245 13.8735,6.84891 19.4931,7.20014 5.6196,0.35123 5.6196,-2.6342 10.1856,-1.75613 4.5659,0.87806 10.5368,4.74156 16.332,7.20014 5.7952,2.45859 12.6441,7.37576 17.7369,6.49769 5.0928,-0.87807 3.1611,-5.61962 6.3221,-5.61962 3.161,0 19.4931,6.6733 24.059,11.9417 4.566,5.26839 11.2393,11.23924 21.9517,15.80519 10.7124,4.56594 90.792,20.89797 107.8265,22.82971 17.0345,1.93175 58.6548,12.11732 66.0306,11.76609 7.3757,-0.35123 31.7859,7.72698 43.3764,9.3075 11.5905,1.58052 56.8987,5.61962 63.7476,5.97085 6.8489,0.35123 63.7476,5.09278 71.1234,5.61962 7.3757,0.52684 27.9225,2.45859 36.8787,2.6342 8.9563,0.17561 78.8504,7.55137 78.8504,7.55137 v 500.1464 L -40.742266,1341.685 -88.509062,778.31778 Z"
       id="path1" /><path
       style="display:inline;fill:#080a14;fill-opacity:1"
       d="m -14.652921,886.37755 c 0,0 24.0903956,2.7319 46.690664,2.98025 22.600268,0.24836 35.266352,2.48355 54.141301,-0.24835 18.874946,-2.7319 43.710406,-4.9671 52.651176,-1.49013 8.94076,3.47696 19.86837,8.44406 42.71699,2.7319 22.84862,-5.71216 42.22028,-12.16938 48.6775,-12.66608 6.45722,-0.49671 24.09039,-6.95393 47.43573,-9.68583 23.34533,-2.7319 27.81571,-2.7319 37.74989,-1.24178 9.93419,1.49013 8.19571,2.23519 32.78281,1.73849 24.58711,-0.49671 35.76306,2.23519 54.38966,-1.24178 18.62659,-3.47696 17.88153,-6.70557 30.0509,-2.98025 12.16938,3.72532 34.02458,7.94734 55.13472,8.44405 21.11014,0.49671 29.05749,0.74507 38.24661,-0.24835 9.18912,-0.99342 17.63318,-3.72532 25.58052,-7.94735 7.94735,-4.22203 12.16938,-7.69899 22.10356,-8.1957 9.93419,-0.49671 10.67925,-2.7319 21.60685,2.23519 10.9276,4.96709 34.52129,11.17596 61.09523,15.14963 26.57394,3.97368 7.20229,7.20228 46.69067,4.71874 39.48838,-2.48355 43.95876,-3.22861 47.18737,-1.73848 3.22861,1.49012 43.71041,-6.45722 68.79422,0 25.08381,6.45722 27.81572,7.20228 44.20712,3.22861 16.3914,-3.97368 19.62001,-5.71216 36.25977,-6.70558 16.63976,-0.99342 29.5542,-6.45722 49.17421,0 19.62001,6.45722 27.69494,11.17341 55.09065,17.49549 27.3956,6.32207 43.552,11.9417 56.8986,7.72698 13.3466,-4.21472 28.0981,-9.83434 43.5521,-13.3466 15.454,-3.51227 31.6104,-0.70246 60.411,2.10735 28.8005,2.80982 21.776,10.5368 76.5673,1.40491 54.7913,-9.13189 81.4846,-28.09811 122.2268,-26.69321 40.7423,1.40491 63.9232,11.9417 91.3189,28.09812 27.3957,16.15641 19.6687,4.91717 63.9232,0.70245 44.2545,-4.21472 57.6011,-11.9417 88.5091,-9.83434 30.9079,2.10736 28.8005,0 64.6256,8.42943 35.8251,8.42944 59.0061,13.34661 82.187,10.5368 23.181,-2.80982 8.4294,-14.04906 51.2791,-18.26378 42.8496,-4.21472 47.7668,-15.45396 73.0551,-4.21472 25.2883,11.23925 82.8894,8.42944 82.8894,8.42944 l 7.0245,253.58553 -2016.039695,-21.0736 5.619623,-230.40457 z"
       id="path2" /><path
       sodipodi:type="star"
       style="fill:#ffffff;fill-opacity:1"
       id="path3"
       inkscape:flatsided="false"
       sodipodi:sides="4"
       sodipodi:cx="154.00417"
       sodipodi:cy="271.71106"
       sodipodi:r1="1.677689"
       sodipodi:r2="0.3347917"
       sodipodi:arg1="-0.60322985"
       sodipodi:arg2="0.18216831"
       inkscape:rounded="0.028991844"
       inkscape:randomized="0"
       d="m 155.38576,270.7593 c 0.024,0.0349 -1.04467,0.97078 -1.05234,1.01241 -0.008,0.0416 0.65737,1.29692 0.62251,1.32094 -0.0349,0.024 -0.97078,-1.04467 -1.01242,-1.05234 -0.0416,-0.008 -1.29692,0.65738 -1.32093,0.62251 -0.024,-0.0349 1.04466,-0.97078 1.05233,-1.01241 0.008,-0.0416 -0.65737,-1.29692 -0.62251,-1.32094 0.0349,-0.024 0.97078,1.04467 1.01242,1.05234 0.0416,0.008 1.29692,-0.65738 1.32094,-0.62251 z" /><path
       sodipodi:type="star"
       style="fill:#ffffff;fill-opacity:1"
       id="path3-0"
       inkscape:flatsided="false"
       sodipodi:sides="4"
       sodipodi:cx="154.00417"
       sodipodi:cy="271.71106"
       sodipodi:r1="1.677689"
       sodipodi:r2="0.33479169"
       sodipodi:arg1="-0.60322985"
       sodipodi:arg2="0.18216831"
       inkscape:rounded="0.028991844"
       inkscape:randomized="0"
       d="m 155.38576,270.7593 c 0.024,0.0349 -1.04467,0.97078 -1.05234,1.01241 -0.008,0.0416 0.65737,1.29692 0.62251,1.32094 -0.0349,0.024 -0.97078,-1.04467 -1.01242,-1.05234 -0.0416,-0.008 -1.29692,0.65738 -1.32093,0.62251 -0.024,-0.0349 1.04466,-0.97078 1.05233,-1.01241 0.008,-0.0416 -0.65737,-1.29692 -0.62251,-1.32094 0.0349,-0.024 0.97078,1.04467 1.01242,1.05234 0.0416,0.008 1.29692,-0.65738 1.32094,-0.62251 z"
       transform="translate(58.37782,46.67093)" /><path
       sodipodi:type="star"
       style="fill:#ffffff;fill-opacity:1"
       id="path3-9"
       inkscape:flatsided="false"
       sodipodi:sides="4"
       sodipodi:cx="154.00417"
       sodipodi:cy="271.71106"
       sodipodi:r1="1.677689"
       sodipodi:r2="0.33479169"
       sodipodi:arg1="-0.60322985"
       sodipodi:arg2="0.18216831"
       inkscape:rounded="0.028991844"
       inkscape:randomized="0"
       d="m 155.38576,270.7593 c 0.024,0.0349 -1.04467,0.97078 -1.05234,1.01241 -0.008,0.0416 0.65737,1.29692 0.62251,1.32094 -0.0349,0.024 -0.97078,-1.04467 -1.01242,-1.05234 -0.0416,-0.008 -1.29692,0.65738 -1.32093,0.62251 -0.024,-0.0349 1.04466,-0.97078 1.05233,-1.01241 0.008,-0.0416 -0.65737,-1.29692 -0.62251,-1.32094 0.0349,-0.024 0.97078,1.04467 1.01242,1.05234 0.0416,0.008 1.29692,-0.65738 1.32094,-0.62251 z"
       transform="translate(-11.62218,138.67093)" /><path
       sodipodi:type="star"
       style="fill:#ffffff;fill-opacity:1"
       id="path3-7"
       inkscape:flatsided="false"
       sodipodi:sides="4"
       sodipodi:cx="154.00417"
       sodipodi:cy="271.71106"
       sodipodi:r1="1.677689"
       sodipodi:r2="0.33479169"
       sodipodi:arg1="-0.60322985"
       sodipodi:arg2="0.18216831"
       inkscape:rounded="0.028991844"
       inkscape:randomized="0"
       d="m 155.38576,270.7593 c 0.024,0.0349 -1.04467,0.97078 -1.05234,1.01241 -0.008,0.0416 0.65737,1.29692 0.62251,1.32094 -0.0349,0.024 -0.97078,-1.04467 -1.01242,-1.05234 -0.0416,-0.008 -1.29692,0.65738 -1.32093,0.62251 -0.024,-0.0349 1.04466,-0.97078 1.05233,-1.01241 0.008,-0.0416 -0.65737,-1.29692 -0.62251,-1.32094 0.0349,-0.024 0.97078,1.04467 1.01242,1.05234 0.0416,0.008 1.29692,-0.65738 1.32094,-0.62251 z"
       transform="translate(150.37782,129.67093)" /><path
       sodipodi:type="star"
       style="fill:#ffffff;fill-opacity:1"
       id="path3-93"
       inkscape:flatsided="false"
       sodipodi:sides="4"
       sodipodi:cx="154.00417"
       sodipodi:cy="271.71106"
       sodipodi:r1="1.677689"
       sodipodi:r2="0.33479169"
       sodipodi:arg1="-0.60322985"
       sodipodi:arg2="0.18216831"
       inkscape:rounded="0.028991844"
       inkscape:randomized="0"
       d="m 155.38576,270.7593 c 0.024,0.0349 -1.04467,0.97078 -1.05234,1.01241 -0.008,0.0416 0.65737,1.29692 0.62251,1.32094 -0.0349,0.024 -0.97078,-1.04467 -1.01242,-1.05234 -0.0416,-0.008 -1.29692,0.65738 -1.32093,0.62251 -0.024,-0.0349 1.04466,-0.97078 1.05233,-1.01241 0.008,-0.0416 -0.65737,-1.29692 -0.62251,-1.32094 0.0349,-0.024 0.97078,1.04467 1.01242,1.05234 0.0416,0.008 1.29692,-0.65738 1.32094,-0.62251 z"
       transform="translate(141.37782,55.67093)" /><path
       sodipodi:type="star"
       style="fill:#ffffff;fill-opacity:1"
       id="path3-8"
       inkscape:flatsided="false"
       sodipodi:sides="4"
       sodipodi:cx="154.00417"
       sodipodi:cy="271.71106"
       sodipodi:r1="1.677689"
       sodipodi:r2="0.33479169"
       sodipodi:arg1="-0.60322985"
       sodipodi:arg2="0.18216831"
       inkscape:rounded="0.028991844"
       inkscape:randomized="0"
       d="m 155.38576,270.7593 c 0.024,0.0349 -1.04467,0.97078 -1.05234,1.01241 -0.008,0.0416 0.65737,1.29692 0.62251,1.32094 -0.0349,0.024 -0.97078,-1.04467 -1.01242,-1.05234 -0.0416,-0.008 -1.29692,0.65738 -1.32093,0.62251 -0.024,-0.0349 1.04466,-0.97078 1.05233,-1.01241 0.008,-0.0416 -0.65737,-1.29692 -0.62251,-1.32094 0.0349,-0.024 0.97078,1.04467 1.01242,1.05234 0.0416,0.008 1.29692,-0.65738 1.32094,-0.62251 z"
       transform="translate(63.37782,175.67093)" /><path
       sodipodi:type="star"
       style="fill:#ffffff;fill-opacity:1"
       id="path3-6"
       inkscape:flatsided="false"
       sodipodi:sides="4"
       sodipodi:cx="154.00417"
       sodipodi:cy="271.71106"
       sodipodi:r1="1.677689"
       sodipodi:r2="0.33479169"
       sodipodi:arg1="-0.60322985"
       sodipodi:arg2="0.18216831"
       inkscape:rounded="0.028991844"
       inkscape:randomized="0"
       d="m 155.38576,270.7593 c 0.024,0.0349 -1.04467,0.97078 -1.05234,1.01241 -0.008,0.0416 0.65737,1.29692 0.62251,1.32094 -0.0349,0.024 -0.97078,-1.04467 -1.01242,-1.05234 -0.0416,-0.008 -1.29692,0.65738 -1.32093,0.62251 -0.024,-0.0349 1.04466,-0.97078 1.05233,-1.01241 0.008,-0.0416 -0.65737,-1.29692 -0.62251,-1.32094 0.0349,-0.024 0.97078,1.04467 1.01242,1.05234 0.0416,0.008 1.29692,-0.65738 1.32094,-0.62251 z"
       transform="translate(-96.62218,84.67093)" /><path
       sodipodi:type="star"
       style="fill:#ffffff;fill-opacity:1"
       id="path3-2"
       inkscape:flatsided="false"
       sodipodi:sides="4"
       sodipodi:cx="154.00417"
       sodipodi:cy="271.71106"
       sodipodi:r1="1.677689"
       sodipodi:r2="0.33479169"
       sodipodi:arg1="-0.60322985"
       sodipodi:arg2="0.18216831"
       inkscape:rounded="0.028991844"
       inkscape:randomized="0"
       d="m 155.38576,270.7593 c 0.024,0.0349 -1.04467,0.97078 -1.05234,1.01241 -0.008,0.0416 0.65737,1.29692 0.62251,1.32094 -0.0349,0.024 -0.97078,-1.04467 -1.01242,-1.05234 -0.0416,-0.008 -1.29692,0.65738 -1.32093,0.62251 -0.024,-0.0349 1.04466,-0.97078 1.05233,-1.01241 0.008,-0.0416 -0.65737,-1.29692 -0.62251,-1.32094 0.0349,-0.024 0.97078,1.04467 1.01242,1.05234 0.0416,0.008 1.29692,-0.65738 1.32094,-0.62251 z"
       transform="translate(-83.62218,-39.32907)" /><path
       sodipodi:type="star"
       style="fill:#ffffff;fill-opacity:1"
       id="path3-5"
       inkscape:flatsided="false"
       sodipodi:sides="4"
       sodipodi:cx="154.00417"
       sodipodi:cy="271.71106"
       sodipodi:r1="1.677689"
       sodipodi:r2="0.33479169"
       sodipodi:arg1="-0.60322985"
       sodipodi:arg2="0.18216831"
       inkscape:rounded="0.028991844"
       inkscape:randomized="0"
       d="m 155.38576,270.7593 c 0.024,0.0349 -1.04467,0.97078 -1.05234,1.01241 -0.008,0.0416 0.65737,1.29692 0.62251,1.32094 -0.0349,0.024 -0.97078,-1.04467 -1.01242,-1.05234 -0.0416,-0.008 -1.29692,0.65738 -1.32093,0.62251 -0.024,-0.0349 1.04466,-0.97078 1.05233,-1.01241 0.008,-0.0416 -0.65737,-1.29692 -0.62251,-1.32094 0.0349,-0.024 0.97078,1.04467 1.01242,1.05234 0.0416,0.008 1.29692,-0.65738 1.32094,-0.62251 z"
       transform="translate(-64.62218,-165.32907)" /><path
       sodipodi:type="star"
       style="fill:#ffffff;fill-opacity:1"
       id="path3-69"
       inkscape:flatsided="false"
       sodipodi:sides="4"
       sodipodi:cx="154.00417"
       sodipodi:cy="271.71106"
       sodipodi:r1="1.677689"
       sodipodi:r2="0.33479169"
       sodipodi:arg1="-0.60322985"
       sodipodi:arg2="0.18216831"
       inkscape:rounded="0.028991844"
       inkscape:randomized="0"
       d="m 155.38576,270.7593 c 0.024,0.0349 -1.04467,0.97078 -1.05234,1.01241 -0.008,0.0416 0.65737,1.29692 0.62251,1.32094 -0.0349,0.024 -0.97078,-1.04467 -1.01242,-1.05234 -0.0416,-0.008 -1.29692,0.65738 -1.32093,0.62251 -0.024,-0.0349 1.04466,-0.97078 1.05233,-1.01241 0.008,-0.0416 -0.65737,-1.29692 -0.62251,-1.32094 0.0349,-0.024 0.97078,1.04467 1.01242,1.05234 0.0416,0.008 1.29692,-0.65738 1.32094,-0.62251 z"
       transform="translate(71.37782,-142.32907)" /><path
       sodipodi:type="star"
       style="fill:#ffffff;fill-opacity:1"
       id="path3-25"
       inkscape:flatsided="false"
       sodipodi:sides="4"
       sodipodi:cx="154.00417"
       sodipodi:cy="271.71106"
       sodipodi:r1="1.677689"
       sodipodi:r2="0.33479169"
       sodipodi:arg1="-0.60322985"
       sodipodi:arg2="0.18216831"
       inkscape:rounded="0.028991844"
       inkscape:randomized="0"
       d="m 155.38576,270.7593 c 0.024,0.0349 -1.04467,0.97078 -1.05234,1.01241 -0.008,0.0416 0.65737,1.29692 0.62251,1.32094 -0.0349,0.024 -0.97078,-1.04467 -1.01242,-1.05234 -0.0416,-0.008 -1.29692,0.65738 -1.32093,0.62251 -0.024,-0.0349 1.04466,-0.97078 1.05233,-1.01241 0.008,-0.0416 -0.65737,-1.29692 -0.62251,-1.32094 0.0349,-0.024 0.97078,1.04467 1.01242,1.05234 0.0416,0.008 1.29692,-0.65738 1.32094,-0.62251 z"
       transform="translate(1.37782,-81.32907)" /><path
       sodipodi:type="star"
       style="fill:#ffffff;fill-opacity:1"
       id="path3-3"
       inkscape:flatsided="false"
       sodipodi:sides="4"
       sodipodi:cx="154.00417"
       sodipodi:cy="271.71106"
       sodipodi:r1="1.677689"
       sodipodi:r2="0.33479169"
       sodipodi:arg1="-0.60322985"
       sodipodi:arg2="0.18216831"
       inkscape:rounded="0.028991844"
       inkscape:randomized="0"
       d="m 155.38576,270.7593 c 0.024,0.0349 -1.04467,0.97078 -1.05234,1.01241 -0.008,0.0416 0.65737,1.29692 0.62251,1.32094 -0.0349,0.024 -0.97078,-1.04467 -1.01242,-1.05234 -0.0416,-0.008 -1.29692,0.65738 -1.32093,0.62251 -0.024,-0.0349 1.04466,-0.97078 1.05233,-1.01241 0.008,-0.0416 -0.65737,-1.29692 -0.62251,-1.32094 0.0349,-0.024 0.97078,1.04467 1.01242,1.05234 0.0416,0.008 1.29692,-0.65738 1.32094,-0.62251 z"
       transform="translate(121.37782,-94.32907)" /><path
       sodipodi:type="star"
       style="fill:#ffffff;fill-opacity:1"
       id="path3-88"
       inkscape:flatsided="false"
       sodipodi:sides="4"
       sodipodi:cx="154.00417"
       sodipodi:cy="271.71106"
       sodipodi:r1="1.677689"
       sodipodi:r2="0.33479169"
       sodipodi:arg1="-0.60322985"
       sodipodi:arg2="0.18216831"
       inkscape:rounded="0.028991844"
       inkscape:randomized="0"
       d="m 155.38576,270.7593 c 0.024,0.0349 -1.04467,0.97078 -1.05234,1.01241 -0.008,0.0416 0.65737,1.29692 0.62251,1.32094 -0.0349,0.024 -0.97078,-1.04467 -1.01242,-1.05234 -0.0416,-0.008 -1.29692,0.65738 -1.32093,0.62251 -0.024,-0.0349 1.04466,-0.97078 1.05233,-1.01241 0.008,-0.0416 -0.65737,-1.29692 -0.62251,-1.32094 0.0349,-0.024 0.97078,1.04467 1.01242,1.05234 0.0416,0.008 1.29692,-0.65738 1.32094,-0.62251 z"
       transform="translate(302.37782,-222.32907)" /><path
       sodipodi:type="star"
       style="fill:#ffffff;fill-opacity:1"
       id="path3-92"
       inkscape:flatsided="false"
       sodipodi:sides="4"
       sodipodi:cx="154.00417"
       sodipodi:cy="271.71106"
       sodipodi:r1="1.677689"
       sodipodi:r2="0.33479169"
       sodipodi:arg1="-0.60322985"
       sodipodi:arg2="0.18216831"
       inkscape:rounded="0.028991844"
       inkscape:randomized="0"
       d="m 155.38576,270.7593 c 0.024,0.0349 -1.04467,0.97078 -1.05234,1.01241 -0.008,0.0416 0.65737,1.29692 0.62251,1.32094 -0.0349,0.024 -0.97078,-1.04467 -1.01242,-1.05234 -0.0416,-0.008 -1.29692,0.65738 -1.32093,0.62251 -0.024,-0.0349 1.04466,-0.97078 1.05233,-1.01241 0.008,-0.0416 -0.65737,-1.29692 -0.62251,-1.32094 0.0349,-0.024 0.97078,1.04467 1.01242,1.05234 0.0416,0.008 1.29692,-0.65738 1.32094,-0.62251 z"
       transform="translate(329.37782,-6.32907)" /><path
       sodipodi:type="star"
       style="fill:#ffffff;fill-opacity:1"
       id="path3-26"
       inkscape:flatsided="false"
       sodipodi:sides="4"
       sodipodi:cx="154.00417"
       sodipodi:cy="271.71106"
       sodipodi:r1="1.677689"
       sodipodi:r2="0.33479169"
       sodipodi:arg1="-0.60322985"
       sodipodi:arg2="0.18216831"
       inkscape:rounded="0.028991844"
       inkscape:randomized="0"
       d="m 155.38576,270.7593 c 0.024,0.0349 -1.04467,0.97078 -1.05234,1.01241 -0.008,0.0416 0.65737,1.29692 0.62251,1.32094 -0.0349,0.024 -0.97078,-1.04467 -1.01242,-1.05234 -0.0416,-0.008 -1.29692,0.65738 -1.32093,0.62251 -0.024,-0.0349 1.04466,-0.97078 1.05233,-1.01241 0.008,-0.0416 -0.65737,-1.29692 -0.62251,-1.32094 0.0349,-0.024 0.97078,1.04467 1.01242,1.05234 0.0416,0.008 1.29692,-0.65738 1.32094,-0.62251 z"
       transform="translate(-61.62218,259.67093)" /><path
       sodipodi:type="star"
       style="fill:#ffffff;fill-opacity:1"
       id="path3-04"
       inkscape:flatsided="false"
       sodipodi:sides="4"
       sodipodi:cx="154.00417"
       sodipodi:cy="271.71106"
       sodipodi:r1="1.677689"
       sodipodi:r2="0.33479169"
       sodipodi:arg1="-0.60322985"
       sodipodi:arg2="0.18216831"
       inkscape:rounded="0.028991844"
       inkscape:randomized="0"
       d="m 155.38576,270.7593 c 0.024,0.0349 -1.04467,0.97078 -1.05234,1.01241 -0.008,0.0416 0.65737,1.29692 0.62251,1.32094 -0.0349,0.024 -0.97078,-1.04467 -1.01242,-1.05234 -0.0416,-0.008 -1.29692,0.65738 -1.32093,0.62251 -0.024,-0.0349 1.04466,-0.97078 1.05233,-1.01241 0.008,-0.0416 -0.65737,-1.29692 -0.62251,-1.32094 0.0349,-0.024 0.97078,1.04467 1.01242,1.05234 0.0416,0.008 1.29692,-0.65738 1.32094,-0.62251 z"
       transform="translate(205.37782,261.67093)" /><path
       sodipodi:type="star"
       style="fill:#ffffff;fill-opacity:1"
       id="path3-27"
       inkscape:flatsided="false"
       sodipodi:sides="4"
       sodipodi:cx="154.00417"
       sodipodi:cy="271.71106"
       sodipodi:r1="1.677689"
       sodipodi:r2="0.33479169"
       sodipodi:arg1="-0.60322985"
       sodipodi:arg2="0.18216831"
       inkscape:rounded="0.028991844"
       inkscape:randomized="0"
       d="m 155.38576,270.7593 c 0.024,0.0349 -1.04467,0.97078 -1.05234,1.01241 -0.008,0.0416 0.65737,1.29692 0.62251,1.32094 -0.0349,0.024 -0.97078,-1.04467 -1.01242,-1.05234 -0.0416,-0.008 -1.29692,0.65738 -1.32093,0.62251 -0.024,-0.0349 1.04466,-0.97078 1.05233,-1.01241 0.008,-0.0416 -0.65737,-1.29692 -0.62251,-1.32094 0.0349,-0.024 0.97078,1.04467 1.01242,1.05234 0.0416,0.008 1.29692,-0.65738 1.32094,-0.62251 z"
       transform="translate(417.37782,319.67093)" /><path
       sodipodi:type="star"
       style="fill:#ffffff;fill-opacity:1"
       id="path3-06"
       inkscape:flatsided="false"
       sodipodi:sides="4"
       sodipodi:cx="154.00417"
       sodipodi:cy="271.71106"
       sodipodi:r1="1.677689"
       sodipodi:r2="0.33479169"
       sodipodi:arg1="-0.60322985"
       sodipodi:arg2="0.18216831"
       inkscape:rounded="0.028991844"
       inkscape:randomized="0"
       d="m 155.38576,270.7593 c 0.024,0.0349 -1.04467,0.97078 -1.05234,1.01241 -0.008,0.0416 0.65737,1.29692 0.62251,1.32094 -0.0349,0.024 -0.97078,-1.04467 -1.01242,-1.05234 -0.0416,-0.008 -1.29692,0.65738 -1.32093,0.62251 -0.024,-0.0349 1.04466,-0.97078 1.05233,-1.01241 0.008,-0.0416 -0.65737,-1.29692 -0.62251,-1.32094 0.0349,-0.024 0.97078,1.04467 1.01242,1.05234 0.0416,0.008 1.29692,-0.65738 1.32094,-0.62251 z"
       transform="translate(550.37782,150.67093)" /><path
       sodipodi:type="star"
       style="fill:#ffffff;fill-opacity:1"
       id="path3-90"
       inkscape:flatsided="false"
       sodipodi:sides="4"
       sodipodi:cx="154.00417"
       sodipodi:cy="271.71106"
       sodipodi:r1="1.677689"
       sodipodi:r2="0.33479169"
       sodipodi:arg1="-0.60322985"
       sodipodi:arg2="0.18216831"
       inkscape:rounded="0.028991844"
       inkscape:randomized="0"
       d="m 155.38576,270.7593 c 0.024,0.0349 -1.04467,0.97078 -1.05234,1.01241 -0.008,0.0416 0.65737,1.29692 0.62251,1.32094 -0.0349,0.024 -0.97078,-1.04467 -1.01242,-1.05234 -0.0416,-0.008 -1.29692,0.65738 -1.32093,0.62251 -0.024,-0.0349 1.04466,-0.97078 1.05233,-1.01241 0.008,-0.0416 -0.65737,-1.29692 -0.62251,-1.32094 0.0349,-0.024 0.97078,1.04467 1.01242,1.05234 0.0416,0.008 1.29692,-0.65738 1.32094,-0.62251 z"
       transform="translate(445.37782,-8.32907)" /><path
       sodipodi:type="star"
       style="fill:#ffffff;fill-opacity:1"
       id="path3-1"
       inkscape:flatsided="false"
       sodipodi:sides="4"
       sodipodi:cx="154.00417"
       sodipodi:cy="271.71106"
       sodipodi:r1="1.677689"
       sodipodi:r2="0.33479169"
       sodipodi:arg1="-0.60322985"
       sodipodi:arg2="0.18216831"
       inkscape:rounded="0.028991844"
       inkscape:randomized="0"
       d="m 155.38576,270.7593 c 0.024,0.0349 -1.04467,0.97078 -1.05234,1.01241 -0.008,0.0416 0.65737,1.29692 0.62251,1.32094 -0.0349,0.024 -0.97078,-1.04467 -1.01242,-1.05234 -0.0416,-0.008 -1.29692,0.65738 -1.32093,0.62251 -0.024,-0.0349 1.04466,-0.97078 1.05233,-1.01241 0.008,-0.0416 -0.65737,-1.29692 -0.62251,-1.32094 0.0349,-0.024 0.97078,1.04467 1.01242,1.05234 0.0416,0.008 1.29692,-0.65738 1.32094,-0.62251 z"
       transform="translate(629.37782,-172.32907)" /><path
       sodipodi:type="star"
       style="fill:#ffffff;fill-opacity:1"
       id="path3-76"
       inkscape:flatsided="false"
       sodipodi:sides="4"
       sodipodi:cx="154.00417"
       sodipodi:cy="271.71106"
       sodipodi:r1="1.677689"
       sodipodi:r2="0.33479169"
       sodipodi:arg1="-0.60322985"
       sodipodi:arg2="0.18216831"
       inkscape:rounded="0.028991844"
       inkscape:randomized="0"
       d="m 155.38576,270.7593 c 0.024,0.0349 -1.04467,0.97078 -1.05234,1.01241 -0.008,0.0416 0.65737,1.29692 0.62251,1.32094 -0.0349,0.024 -0.97078,-1.04467 -1.01242,-1.05234 -0.0416,-0.008 -1.29692,0.65738 -1.32093,0.62251 -0.024,-0.0349 1.04466,-0.97078 1.05233,-1.01241 0.008,-0.0416 -0.65737,-1.29692 -0.62251,-1.32094 0.0349,-0.024 0.97078,1.04467 1.01242,1.05234 0.0416,0.008 1.29692,-0.65738 1.32094,-0.62251 z"
       transform="translate(312.37782,145.67093)" /><path
       sodipodi:type="star"
       style="fill:#ffffff;fill-opacity:1"
       id="path3-63"
       inkscape:flatsided="false"
       sodipodi:sides="4"
       sodipodi:cx="154.00417"
       sodipodi:cy="271.71106"
       sodipodi:r1="1.677689"
       sodipodi:r2="0.33479169"
       sodipodi:arg1="-0.60322985"
       sodipodi:arg2="0.18216831"
       inkscape:rounded="0.028991844"
       inkscape:randomized="0"
       d="m 155.38576,270.7593 c 0.024,0.0349 -1.04467,0.97078 -1.05234,1.01241 -0.008,0.0416 0.65737,1.29692 0.62251,1.32094 -0.0349,0.024 -0.97078,-1.04467 -1.01242,-1.05234 -0.0416,-0.008 -1.29692,0.65738 -1.32093,0.62251 -0.024,-0.0349 1.04466,-0.97078 1.05233,-1.01241 0.008,-0.0416 -0.65737,-1.29692 -0.62251,-1.32094 0.0349,-0.024 0.97078,1.04467 1.01242,1.05234 0.0416,0.008 1.29692,-0.65738 1.32094,-0.62251 z"
       transform="translate(212.37782,-66.32907)" /></g></svg>
